<svg xmlns="http://www.w3.org/2000/svg" viewBox="0 0 40 32">
  <defs>
    <radialGradient id="bwing" cx="0.55" cy="0.3" r="0.95">
      <stop offset="0" stop-color="#f9c979"/><stop offset="0.5" stop-color="#f2a03d"/><stop offset="1" stop-color="#b8651e"/>
    </radialGradient>
    <radialGradient id="bwing2" cx="0.55" cy="0.3" r="0.95">
      <stop offset="0" stop-color="#fbd99a"/><stop offset="0.55" stop-color="#f4b95e"/><stop offset="1" stop-color="#c9782a"/>
    </radialGradient>
  </defs>
  <!-- antennae -->
  <path d="M17.5 10.5 Q14 4.5 10.6 4.6" fill="none" stroke="#5a4632" stroke-width="1.3" stroke-linecap="round"/>
  <path d="M20.5 9.5 Q23.5 3.5 27 3.2" fill="none" stroke="#5a4632" stroke-width="1.3" stroke-linecap="round"/>
  <circle cx="10.4" cy="4.6" r="1.2" fill="#5a4632"/>
  <circle cx="27.2" cy="3.2" r="1.2" fill="#5a4632"/>
  <!-- far wings (right side), foreshortened by the 3/4 tilt -->
  <path d="M22.5 14.5 Q30.5 4 35.8 6.8 Q38.6 12 30.5 17 Q25 19 22.5 14.5 Z" fill="url(#bwing)"/>
  <path d="M23 19.5 Q31 21.5 30.4 26 Q28 29.4 22.8 26.4 Q21 22.8 23 19.5 Z" fill="url(#bwing2)"/>
  <circle cx="31" cy="10.8" r="2" fill="#fbe2b0"/>
  <circle cx="27" cy="24.6" r="1.3" fill="#fbe2b0"/>
  <!-- near wings (left side), fuller -->
  <path d="M17.8 14 Q6 1.5 1.8 7 Q-0.6 15 10 20.4 Q16.4 22 17.8 14 Z" fill="url(#bwing)"/>
  <path d="M16.8 20 Q5.6 23 7.4 28.6 Q9.6 32.4 16 29.6 Q19 26.8 16.8 20 Z" fill="url(#bwing2)"/>
  <circle cx="8" cy="11.5" r="2.7" fill="#fbe2b0"/>
  <circle cx="7.2" cy="10.5" r="1.1" fill="#fdf2dc"/>
  <circle cx="11.5" cy="26.5" r="1.7" fill="#fbe2b0"/>
  <!-- light along the leading edges -->
  <path d="M5 8 Q11 5.6 16.2 12.4" fill="none" stroke="#fbd08a" stroke-width="1.2" opacity="0.7"/>
  <path d="M27 8.5 Q31.5 6.6 34.6 9.4" fill="none" stroke="#fbd08a" stroke-width="1.1" opacity="0.65"/>
  <!-- body on a slight diagonal, head toward the upper-front -->
  <ellipse cx="19.5" cy="19.5" rx="2.5" ry="7.6" transform="rotate(8 19.5 19.5)" fill="#5a4632"/>
  <circle cx="18.6" cy="11.8" r="2.1" fill="#5a4632"/>
  <ellipse cx="18.4" cy="15.5" rx="1" ry="2.8" transform="rotate(8 18.4 15.5)" fill="#8a745c" opacity="0.8"/>
  <circle cx="17.9" cy="11.1" r="0.6" fill="#a8927a" opacity="0.9"/>
</svg>
